<?xml version="1.0" standalone="no"?>
<!DOCTYPE svg PUBLIC "-//W3C//DTD SVG 20010904//EN"
 "http://www.w3.org/TR/2001/REC-SVG-20010904/DTD/svg10.dtd">
<svg version="1.0" xmlns="http://www.w3.org/2000/svg"
 width="256.000000pt" height="256.000000pt" viewBox="0 0 256.000000 256.000000"
 preserveAspectRatio="xMidYMid meet">
<metadata>
Created by potrace 1.14, written by Peter Selinger 2001-2017
</metadata>
<g transform="translate(0.000000,256.000000) scale(0.100000,-0.100000)"
fill="#000000" stroke="none">
<path d="M790 2249 c-47 -29 -70 -75 -70 -140 l0 -56 -51 0 c-170 -3 -281 -70
-347 -211 l-27 -57 0 -610 0 -610 32 -67 c50 -105 140 -177 247 -197 24 -4
353 -7 732 -7 l689 1 58 27 c70 33 110 65 149 120 63 86 61 67 63 713 2 609 1
637 -39 713 -25 48 -83 110 -130 137 -54 31 -106 44 -187 47 l-67 2 -5 69 c-3
53 -9 73 -28 94 -63 68 -165 62 -214 -13 -15 -23 -21 -59 -24 -130 -1 -19 -7
-20 -79 -21 l-77 0 -2 59 c-3 75 -29 120 -82 142 -52 20 -102 11 -140 -27 -34
-32 -42 -53 -46 -120 -1 -23 -3 -45 -4 -48 0 -4 -35 -6 -76 -6 -69 0 -75 1
-76 21 -5 90 -12 121 -38 150 -35 40 -115 53 -161 25z"/>
</g>
</svg>
